<?xml version="1.0" standalone="no"?>
<!DOCTYPE svg PUBLIC "-//W3C//DTD SVG 20010904//EN"
 "http://www.w3.org/TR/2001/REC-SVG-20010904/DTD/svg10.dtd">
<svg version="1.0" xmlns="http://www.w3.org/2000/svg"
 width="700.000000pt" height="700.000000pt" viewBox="0 0 700.000000 700.000000"
 preserveAspectRatio="xMidYMid meet">
<metadata>
Created by potrace 1.11, written by Peter Selinger 2001-2013
</metadata>
<g transform="translate(0.000000,700.000000) scale(0.100000,-0.100000)"
fill="#000000" stroke="none">
<path d="M3270 6954 c-19 -2 -84 -9 -145 -15 -1333 -133 -2503 -1084 -2918
-2374 -116 -359 -162 -663 -162 -1065 0 -333 27 -562 101 -855 308 -1218 1281
-2191 2499 -2499 293 -74 522 -101 855 -101 333 0 562 27 855 101 1218 308
2191 1281 2499 2499 74 293 101 522 101 855 0 333 -27 562 -101 855 -270 1067
-1052 1955 -2083 2365 -261 103 -548 176 -853 216 -116 15 -565 28 -648 18z
m785 -3048 c669 -67 1095 -225 1095 -406 0 -156 -318 -298 -844 -375 -269 -39
-439 -50 -806 -50 -367 0 -537 11 -806 50 -526 77 -844 219 -844 375 0 187
492 361 1155 410 83 6 166 12 185 14 84 10 726 -4 865 -18z"/>
</g>
</svg>
